<svg width="149" height="48" viewBox="0 0 149 48" fill="none" xmlns="http://www.w3.org/2000/svg">
<path d="M1.224 13.512C1.848 13.536 2.664 13.56 3.672 13.584C4.68 13.608 5.688 13.62 6.696 13.62C7.848 13.62 8.964 13.608 10.044 13.584C11.124 13.56 11.892 13.548 12.348 13.548C15.324 13.548 17.544 14.076 19.008 15.132C20.496 16.188 21.24 17.544 21.24 19.2C21.24 20.04 20.988 20.892 20.484 21.756C19.98 22.62 19.2 23.388 18.144 24.06C17.088 24.732 15.72 25.224 14.04 25.536V25.608C16.296 25.776 18.084 26.184 19.404 26.832C20.724 27.48 21.672 28.26 22.248 29.172C22.824 30.084 23.112 31.032 23.112 32.016C23.112 33.528 22.716 34.8 21.924 35.832C21.132 36.864 19.992 37.656 18.504 38.208C17.016 38.736 15.24 39 13.176 39C12.6 39 11.772 38.988 10.692 38.964C9.612 38.916 8.304 38.892 6.768 38.892C5.712 38.892 4.68 38.904 3.672 38.928C2.664 38.928 1.848 38.952 1.224 39V38.28C1.992 38.232 2.568 38.136 2.952 37.992C3.336 37.848 3.588 37.56 3.708 37.128C3.852 36.696 3.924 36.048 3.924 35.184V17.328C3.924 16.44 3.852 15.792 3.708 15.384C3.588 14.952 3.324 14.664 2.916 14.52C2.532 14.352 1.968 14.256 1.224 14.232V13.512ZM11.88 14.232C10.944 14.232 10.332 14.436 10.044 14.844C9.78 15.252 9.648 16.08 9.648 17.328V35.184C9.648 36.024 9.708 36.66 9.828 37.092C9.972 37.524 10.212 37.812 10.548 37.956C10.908 38.1 11.436 38.172 12.132 38.172C13.86 38.172 15.12 37.632 15.912 36.552C16.728 35.448 17.136 33.888 17.136 31.872C17.136 30.024 16.668 28.596 15.732 27.588C14.82 26.58 13.296 26.076 11.16 26.076H8.1C8.1 26.076 8.1 25.98 8.1 25.788C8.1 25.572 8.1 25.464 8.1 25.464H11.196C12.324 25.464 13.188 25.2 13.788 24.672C14.388 24.12 14.808 23.4 15.048 22.512C15.288 21.6 15.408 20.628 15.408 19.596C15.408 17.82 15.132 16.488 14.58 15.6C14.028 14.688 13.128 14.232 11.88 14.232ZM44.566 13.512C44.47 14.568 44.398 15.588 44.35 16.572C44.326 17.556 44.314 18.312 44.314 18.84C44.314 19.32 44.326 19.776 44.35 20.208C44.374 20.64 44.398 21 44.422 21.288H43.594C43.354 19.536 42.982 18.156 42.478 17.148C41.974 16.116 41.314 15.396 40.498 14.988C39.706 14.556 38.77 14.34 37.69 14.34H36.214C35.518 14.34 34.99 14.4 34.63 14.52C34.27 14.64 34.03 14.88 33.91 15.24C33.79 15.6 33.73 16.152 33.73 16.896V35.616C33.73 36.36 33.79 36.912 33.91 37.272C34.03 37.632 34.27 37.872 34.63 37.992C34.99 38.112 35.518 38.172 36.214 38.172H37.978C39.058 38.172 40.006 37.944 40.822 37.488C41.662 37.008 42.37 36.204 42.946 35.076C43.546 33.948 44.002 32.424 44.314 30.504H45.142C45.07 31.272 45.034 32.28 45.034 33.528C45.034 34.08 45.046 34.86 45.07 35.868C45.094 36.876 45.166 37.92 45.286 39C44.062 38.952 42.682 38.928 41.146 38.928C39.61 38.904 38.242 38.892 37.042 38.892C36.442 38.892 35.674 38.892 34.738 38.892C33.802 38.892 32.794 38.904 31.714 38.928C30.634 38.928 29.542 38.94 28.438 38.964C27.334 38.964 26.29 38.976 25.306 39V38.28C26.074 38.232 26.65 38.136 27.034 37.992C27.418 37.848 27.67 37.56 27.79 37.128C27.934 36.696 28.006 36.048 28.006 35.184V17.328C28.006 16.44 27.934 15.792 27.79 15.384C27.67 14.952 27.406 14.664 26.998 14.52C26.614 14.352 26.05 14.256 25.306 14.232V13.512C26.29 13.536 27.334 13.56 28.438 13.584C29.542 13.584 30.634 13.596 31.714 13.62C32.794 13.62 33.802 13.62 34.738 13.62C35.674 13.62 36.442 13.62 37.042 13.62C38.146 13.62 39.394 13.62 40.786 13.62C42.202 13.596 43.462 13.56 44.566 13.512ZM38.95 25.824C38.95 25.824 38.95 25.944 38.95 26.184C38.95 26.424 38.95 26.544 38.95 26.544H32.65C32.65 26.544 32.65 26.424 32.65 26.184C32.65 25.944 32.65 25.824 32.65 25.824H38.95ZM39.994 21.072C39.898 22.44 39.85 23.484 39.85 24.204C39.874 24.924 39.886 25.584 39.886 26.184C39.886 26.784 39.898 27.444 39.922 28.164C39.946 28.884 40.006 29.928 40.102 31.296H39.274C39.154 30.456 38.926 29.676 38.59 28.956C38.278 28.236 37.822 27.66 37.222 27.228C36.622 26.772 35.842 26.544 34.882 26.544V25.824C35.602 25.824 36.214 25.68 36.718 25.392C37.222 25.08 37.63 24.684 37.942 24.204C38.278 23.7 38.542 23.172 38.734 22.62C38.926 22.068 39.07 21.552 39.166 21.072H39.994ZM60.1464 13.44L68.8944 35.976C69.2304 36.84 69.6024 37.44 70.0104 37.776C70.4424 38.088 70.8264 38.256 71.1624 38.28V39C70.4424 38.952 69.5904 38.928 68.6064 38.928C67.6464 38.904 66.6744 38.892 65.6904 38.892C64.5864 38.892 63.5424 38.904 62.5584 38.928C61.5744 38.928 60.7944 38.952 60.2184 39V38.28C61.4424 38.232 62.2104 38.028 62.5224 37.668C62.8584 37.284 62.7864 36.48 62.3064 35.256L56.1864 18.516L56.8344 17.58L51.3624 31.836C50.8344 33.156 50.5104 34.236 50.3904 35.076C50.2944 35.916 50.3544 36.564 50.5704 37.02C50.8104 37.476 51.1824 37.8 51.6864 37.992C52.2144 38.16 52.8384 38.256 53.5584 38.28V39C52.7664 38.952 52.0104 38.928 51.2904 38.928C50.5704 38.904 49.8384 38.892 49.0944 38.892C48.5664 38.892 48.0624 38.904 47.5824 38.928C47.1264 38.928 46.7184 38.952 46.3584 39V38.28C46.8624 38.184 47.3784 37.86 47.9064 37.308C48.4344 36.756 48.9504 35.82 49.4544 34.5L57.6624 13.44C58.0464 13.464 58.4544 13.476 58.8864 13.476C59.3424 13.476 59.7624 13.464 60.1464 13.44ZM62.6664 28.632V29.352H51.9384L52.2984 28.632H62.6664ZM95.0662 13.512V14.232C94.2982 14.328 93.7102 14.532 93.3022 14.844C92.9182 15.132 92.6662 15.6 92.5462 16.248C92.4262 16.896 92.3662 17.808 92.3662 18.984V28.524C92.3662 30.084 92.2582 31.512 92.0422 32.808C91.8262 34.104 91.4422 35.22 90.8902 36.156C90.2662 37.188 89.3542 38.004 88.1542 38.604C86.9542 39.204 85.4302 39.504 83.5822 39.504C82.4782 39.504 81.3502 39.372 80.1982 39.108C79.0462 38.868 78.0142 38.4 77.1022 37.704C76.3342 37.056 75.7462 36.324 75.3382 35.508C74.9302 34.692 74.6542 33.732 74.5102 32.628C74.3662 31.5 74.2942 30.168 74.2942 28.632V17.328C74.2942 16.44 74.2222 15.792 74.0782 15.384C73.9582 14.952 73.7062 14.664 73.3222 14.52C72.9382 14.352 72.3622 14.256 71.5942 14.232V13.512C72.1942 13.536 72.9982 13.56 74.0062 13.584C75.0382 13.608 76.1062 13.62 77.2102 13.62C78.3142 13.62 79.3702 13.608 80.3782 13.584C81.4102 13.56 82.2622 13.536 82.9342 13.512V14.232C82.1182 14.256 81.4942 14.352 81.0622 14.52C80.6542 14.664 80.3782 14.952 80.2342 15.384C80.0902 15.792 80.0182 16.44 80.0182 17.328V30.9C80.0182 32.1 80.0902 33.168 80.2342 34.104C80.4022 35.016 80.6662 35.784 81.0262 36.408C81.4102 37.008 81.9262 37.464 82.5742 37.776C83.2222 38.088 84.0262 38.244 84.9862 38.244C86.6662 38.244 87.9742 37.848 88.9102 37.056C89.8702 36.264 90.5422 35.172 90.9262 33.78C91.3342 32.364 91.5382 30.744 91.5382 28.92V19.416C91.5382 18.096 91.4542 17.088 91.2862 16.392C91.1182 15.672 90.7822 15.156 90.2782 14.844C89.7982 14.532 89.0542 14.328 88.0462 14.232V13.512C88.5022 13.536 89.1022 13.56 89.8462 13.584C90.5902 13.608 91.2862 13.62 91.9342 13.62C92.5102 13.62 93.0742 13.608 93.6262 13.584C94.2022 13.56 94.6822 13.536 95.0662 13.512ZM118.842 13.512C118.746 14.736 118.674 15.912 118.626 17.04C118.602 18.168 118.59 19.032 118.59 19.632C118.59 20.16 118.602 20.664 118.626 21.144C118.65 21.624 118.674 22.032 118.698 22.368H117.87C117.486 20.352 116.994 18.756 116.394 17.58C115.818 16.404 115.122 15.576 114.306 15.096C113.49 14.592 112.53 14.34 111.426 14.34H110.598V34.896C110.598 35.856 110.694 36.576 110.886 37.056C111.102 37.536 111.486 37.86 112.038 38.028C112.59 38.172 113.394 38.256 114.45 38.28V39C113.706 38.976 112.71 38.952 111.462 38.928C110.238 38.904 108.954 38.892 107.61 38.892C106.29 38.892 105.042 38.904 103.866 38.928C102.69 38.952 101.742 38.976 101.022 39V38.28C102.102 38.256 102.918 38.172 103.47 38.028C104.022 37.86 104.394 37.536 104.586 37.056C104.778 36.576 104.874 35.856 104.874 34.896V14.34H104.082C102.978 14.34 102.018 14.592 101.202 15.096C100.386 15.576 99.6905 16.404 99.1145 17.58C98.5385 18.732 98.0345 20.328 97.6025 22.368H96.7745C96.8225 22.032 96.8465 21.624 96.8465 21.144C96.8705 20.664 96.8825 20.16 96.8825 19.632C96.8825 19.032 96.8585 18.168 96.8105 17.04C96.7865 15.912 96.7265 14.736 96.6305 13.512C97.7345 13.536 98.9345 13.56 100.23 13.584C101.55 13.608 102.87 13.62 104.19 13.62C105.51 13.62 106.698 13.62 107.754 13.62C108.834 13.62 110.022 13.62 111.318 13.62C112.638 13.62 113.958 13.608 115.278 13.584C116.598 13.56 117.786 13.536 118.842 13.512ZM140.261 13.512C140.165 14.568 140.093 15.588 140.045 16.572C140.021 17.556 140.009 18.312 140.009 18.84C140.009 19.32 140.021 19.776 140.045 20.208C140.069 20.64 140.093 21 140.117 21.288H139.289C139.049 19.536 138.677 18.156 138.173 17.148C137.669 16.116 137.009 15.396 136.193 14.988C135.401 14.556 134.465 14.34 133.385 14.34H131.909C131.213 14.34 130.685 14.4 130.325 14.52C129.965 14.64 129.725 14.88 129.605 15.24C129.485 15.6 129.425 16.152 129.425 16.896V35.616C129.425 36.36 129.485 36.912 129.605 37.272C129.725 37.632 129.965 37.872 130.325 37.992C130.685 38.112 131.213 38.172 131.909 38.172H133.673C134.753 38.172 135.701 37.944 136.517 37.488C137.357 37.008 138.065 36.204 138.641 35.076C139.241 33.948 139.697 32.424 140.009 30.504H140.837C140.765 31.272 140.729 32.28 140.729 33.528C140.729 34.08 140.741 34.86 140.765 35.868C140.789 36.876 140.861 37.92 140.981 39C139.757 38.952 138.377 38.928 136.841 38.928C135.305 38.904 133.937 38.892 132.737 38.892C132.137 38.892 131.369 38.892 130.433 38.892C129.497 38.892 128.489 38.904 127.409 38.928C126.329 38.928 125.237 38.94 124.133 38.964C123.029 38.964 121.985 38.976 121.001 39V38.28C121.769 38.232 122.345 38.136 122.729 37.992C123.113 37.848 123.365 37.56 123.485 37.128C123.629 36.696 123.701 36.048 123.701 35.184V17.328C123.701 16.44 123.629 15.792 123.485 15.384C123.365 14.952 123.101 14.664 122.693 14.52C122.309 14.352 121.745 14.256 121.001 14.232V13.512C121.985 13.536 123.029 13.56 124.133 13.584C125.237 13.584 126.329 13.596 127.409 13.62C128.489 13.62 129.497 13.62 130.433 13.62C131.369 13.62 132.137 13.62 132.737 13.62C133.841 13.62 135.089 13.62 136.481 13.62C137.897 13.596 139.157 13.56 140.261 13.512ZM134.645 25.824C134.645 25.824 134.645 25.944 134.645 26.184C134.645 26.424 134.645 26.544 134.645 26.544H128.345C128.345 26.544 128.345 26.424 128.345 26.184C128.345 25.944 128.345 25.824 128.345 25.824H134.645ZM135.689 21.072C135.593 22.44 135.545 23.484 135.545 24.204C135.569 24.924 135.581 25.584 135.581 26.184C135.581 26.784 135.593 27.444 135.617 28.164C135.641 28.884 135.701 29.928 135.797 31.296H134.969C134.849 30.456 134.621 29.676 134.285 28.956C133.973 28.236 133.517 27.66 132.917 27.228C132.317 26.772 131.537 26.544 130.577 26.544V25.824C131.297 25.824 131.909 25.68 132.413 25.392C132.917 25.08 133.325 24.684 133.637 24.204C133.973 23.7 134.237 23.172 134.429 22.62C134.621 22.068 134.765 21.552 134.861 21.072H135.689ZM134.285 5.376C134.789 5.088 135.329 5.016 135.905 5.16C136.505 5.28 136.937 5.616 137.201 6.168C137.441 6.624 137.465 7.104 137.273 7.608C137.105 8.112 136.745 8.52 136.193 8.832C135.665 9.12 135.077 9.348 134.429 9.516C133.781 9.66 133.001 9.852 132.089 10.092C131.177 10.332 130.049 10.704 128.705 11.208L128.453 10.776C129.605 9.84 130.493 9.024 131.117 8.328C131.765 7.632 132.317 7.044 132.773 6.564C133.229 6.06 133.733 5.664 134.285 5.376Z" fill="#2B6377"/>
<path d="M1.224 13.512C1.848 13.536 2.664 13.56 3.672 13.584C4.68 13.608 5.688 13.62 6.696 13.62C7.848 13.62 8.964 13.608 10.044 13.584C11.124 13.56 11.892 13.548 12.348 13.548C15.324 13.548 17.544 14.076 19.008 15.132C20.496 16.188 21.24 17.544 21.24 19.2C21.24 20.04 20.988 20.892 20.484 21.756C19.98 22.62 19.2 23.388 18.144 24.06C17.088 24.732 15.72 25.224 14.04 25.536V25.608C16.296 25.776 18.084 26.184 19.404 26.832C20.724 27.48 21.672 28.26 22.248 29.172C22.824 30.084 23.112 31.032 23.112 32.016C23.112 33.528 22.716 34.8 21.924 35.832C21.132 36.864 19.992 37.656 18.504 38.208C17.016 38.736 15.24 39 13.176 39C12.6 39 11.772 38.988 10.692 38.964C9.612 38.916 8.304 38.892 6.768 38.892C5.712 38.892 4.68 38.904 3.672 38.928C2.664 38.928 1.848 38.952 1.224 39V38.28C1.992 38.232 2.568 38.136 2.952 37.992C3.336 37.848 3.588 37.56 3.708 37.128C3.852 36.696 3.924 36.048 3.924 35.184V17.328C3.924 16.44 3.852 15.792 3.708 15.384C3.588 14.952 3.324 14.664 2.916 14.52C2.532 14.352 1.968 14.256 1.224 14.232V13.512ZM11.88 14.232C10.944 14.232 10.332 14.436 10.044 14.844C9.78 15.252 9.648 16.08 9.648 17.328V35.184C9.648 36.024 9.708 36.66 9.828 37.092C9.972 37.524 10.212 37.812 10.548 37.956C10.908 38.1 11.436 38.172 12.132 38.172C13.86 38.172 15.12 37.632 15.912 36.552C16.728 35.448 17.136 33.888 17.136 31.872C17.136 30.024 16.668 28.596 15.732 27.588C14.82 26.58 13.296 26.076 11.16 26.076H8.1C8.1 26.076 8.1 25.98 8.1 25.788C8.1 25.572 8.1 25.464 8.1 25.464H11.196C12.324 25.464 13.188 25.2 13.788 24.672C14.388 24.12 14.808 23.4 15.048 22.512C15.288 21.6 15.408 20.628 15.408 19.596C15.408 17.82 15.132 16.488 14.58 15.6C14.028 14.688 13.128 14.232 11.88 14.232ZM44.566 13.512C44.47 14.568 44.398 15.588 44.35 16.572C44.326 17.556 44.314 18.312 44.314 18.84C44.314 19.32 44.326 19.776 44.35 20.208C44.374 20.64 44.398 21 44.422 21.288H43.594C43.354 19.536 42.982 18.156 42.478 17.148C41.974 16.116 41.314 15.396 40.498 14.988C39.706 14.556 38.77 14.34 37.69 14.34H36.214C35.518 14.34 34.99 14.4 34.63 14.52C34.27 14.64 34.03 14.88 33.91 15.24C33.79 15.6 33.73 16.152 33.73 16.896V35.616C33.73 36.36 33.79 36.912 33.91 37.272C34.03 37.632 34.27 37.872 34.63 37.992C34.99 38.112 35.518 38.172 36.214 38.172H37.978C39.058 38.172 40.006 37.944 40.822 37.488C41.662 37.008 42.37 36.204 42.946 35.076C43.546 33.948 44.002 32.424 44.314 30.504H45.142C45.07 31.272 45.034 32.28 45.034 33.528C45.034 34.08 45.046 34.86 45.07 35.868C45.094 36.876 45.166 37.92 45.286 39C44.062 38.952 42.682 38.928 41.146 38.928C39.61 38.904 38.242 38.892 37.042 38.892C36.442 38.892 35.674 38.892 34.738 38.892C33.802 38.892 32.794 38.904 31.714 38.928C30.634 38.928 29.542 38.94 28.438 38.964C27.334 38.964 26.29 38.976 25.306 39V38.28C26.074 38.232 26.65 38.136 27.034 37.992C27.418 37.848 27.67 37.56 27.79 37.128C27.934 36.696 28.006 36.048 28.006 35.184V17.328C28.006 16.44 27.934 15.792 27.79 15.384C27.67 14.952 27.406 14.664 26.998 14.52C26.614 14.352 26.05 14.256 25.306 14.232V13.512C26.29 13.536 27.334 13.56 28.438 13.584C29.542 13.584 30.634 13.596 31.714 13.62C32.794 13.62 33.802 13.62 34.738 13.62C35.674 13.62 36.442 13.62 37.042 13.62C38.146 13.62 39.394 13.62 40.786 13.62C42.202 13.596 43.462 13.56 44.566 13.512ZM38.95 25.824C38.95 25.824 38.95 25.944 38.95 26.184C38.95 26.424 38.95 26.544 38.95 26.544H32.65C32.65 26.544 32.65 26.424 32.65 26.184C32.65 25.944 32.65 25.824 32.65 25.824H38.95ZM39.994 21.072C39.898 22.44 39.85 23.484 39.85 24.204C39.874 24.924 39.886 25.584 39.886 26.184C39.886 26.784 39.898 27.444 39.922 28.164C39.946 28.884 40.006 29.928 40.102 31.296H39.274C39.154 30.456 38.926 29.676 38.59 28.956C38.278 28.236 37.822 27.66 37.222 27.228C36.622 26.772 35.842 26.544 34.882 26.544V25.824C35.602 25.824 36.214 25.68 36.718 25.392C37.222 25.08 37.63 24.684 37.942 24.204C38.278 23.7 38.542 23.172 38.734 22.62C38.926 22.068 39.07 21.552 39.166 21.072H39.994ZM60.1464 13.44L68.8944 35.976C69.2304 36.84 69.6024 37.44 70.0104 37.776C70.4424 38.088 70.8264 38.256 71.1624 38.28V39C70.4424 38.952 69.5904 38.928 68.6064 38.928C67.6464 38.904 66.6744 38.892 65.6904 38.892C64.5864 38.892 63.5424 38.904 62.5584 38.928C61.5744 38.928 60.7944 38.952 60.2184 39V38.28C61.4424 38.232 62.2104 38.028 62.5224 37.668C62.8584 37.284 62.7864 36.48 62.3064 35.256L56.1864 18.516L56.8344 17.58L51.3624 31.836C50.8344 33.156 50.5104 34.236 50.3904 35.076C50.2944 35.916 50.3544 36.564 50.5704 37.02C50.8104 37.476 51.1824 37.8 51.6864 37.992C52.2144 38.16 52.8384 38.256 53.5584 38.28V39C52.7664 38.952 52.0104 38.928 51.2904 38.928C50.5704 38.904 49.8384 38.892 49.0944 38.892C48.5664 38.892 48.0624 38.904 47.5824 38.928C47.1264 38.928 46.7184 38.952 46.3584 39V38.28C46.8624 38.184 47.3784 37.86 47.9064 37.308C48.4344 36.756 48.9504 35.82 49.4544 34.5L57.6624 13.44C58.0464 13.464 58.4544 13.476 58.8864 13.476C59.3424 13.476 59.7624 13.464 60.1464 13.44ZM62.6664 28.632V29.352H51.9384L52.2984 28.632H62.6664ZM95.0662 13.512V14.232C94.2982 14.328 93.7102 14.532 93.3022 14.844C92.9182 15.132 92.6662 15.6 92.5462 16.248C92.4262 16.896 92.3662 17.808 92.3662 18.984V28.524C92.3662 30.084 92.2582 31.512 92.0422 32.808C91.8262 34.104 91.4422 35.22 90.8902 36.156C90.2662 37.188 89.3542 38.004 88.1542 38.604C86.9542 39.204 85.4302 39.504 83.5822 39.504C82.4782 39.504 81.3502 39.372 80.1982 39.108C79.0462 38.868 78.0142 38.4 77.1022 37.704C76.3342 37.056 75.7462 36.324 75.3382 35.508C74.9302 34.692 74.6542 33.732 74.5102 32.628C74.3662 31.5 74.2942 30.168 74.2942 28.632V17.328C74.2942 16.44 74.2222 15.792 74.0782 15.384C73.9582 14.952 73.7062 14.664 73.3222 14.52C72.9382 14.352 72.3622 14.256 71.5942 14.232V13.512C72.1942 13.536 72.9982 13.56 74.0062 13.584C75.0382 13.608 76.1062 13.62 77.2102 13.62C78.3142 13.62 79.3702 13.608 80.3782 13.584C81.4102 13.56 82.2622 13.536 82.9342 13.512V14.232C82.1182 14.256 81.4942 14.352 81.0622 14.52C80.6542 14.664 80.3782 14.952 80.2342 15.384C80.0902 15.792 80.0182 16.44 80.0182 17.328V30.9C80.0182 32.1 80.0902 33.168 80.2342 34.104C80.4022 35.016 80.6662 35.784 81.0262 36.408C81.4102 37.008 81.9262 37.464 82.5742 37.776C83.2222 38.088 84.0262 38.244 84.9862 38.244C86.6662 38.244 87.9742 37.848 88.9102 37.056C89.8702 36.264 90.5422 35.172 90.9262 33.78C91.3342 32.364 91.5382 30.744 91.5382 28.92V19.416C91.5382 18.096 91.4542 17.088 91.2862 16.392C91.1182 15.672 90.7822 15.156 90.2782 14.844C89.7982 14.532 89.0542 14.328 88.0462 14.232V13.512C88.5022 13.536 89.1022 13.56 89.8462 13.584C90.5902 13.608 91.2862 13.62 91.9342 13.62C92.5102 13.62 93.0742 13.608 93.6262 13.584C94.2022 13.56 94.6822 13.536 95.0662 13.512ZM118.842 13.512C118.746 14.736 118.674 15.912 118.626 17.04C118.602 18.168 118.59 19.032 118.59 19.632C118.59 20.16 118.602 20.664 118.626 21.144C118.65 21.624 118.674 22.032 118.698 22.368H117.87C117.486 20.352 116.994 18.756 116.394 17.58C115.818 16.404 115.122 15.576 114.306 15.096C113.49 14.592 112.53 14.34 111.426 14.34H110.598V34.896C110.598 35.856 110.694 36.576 110.886 37.056C111.102 37.536 111.486 37.86 112.038 38.028C112.59 38.172 113.394 38.256 114.45 38.28V39C113.706 38.976 112.71 38.952 111.462 38.928C110.238 38.904 108.954 38.892 107.61 38.892C106.29 38.892 105.042 38.904 103.866 38.928C102.69 38.952 101.742 38.976 101.022 39V38.28C102.102 38.256 102.918 38.172 103.47 38.028C104.022 37.86 104.394 37.536 104.586 37.056C104.778 36.576 104.874 35.856 104.874 34.896V14.34H104.082C102.978 14.34 102.018 14.592 101.202 15.096C100.386 15.576 99.6905 16.404 99.1145 17.58C98.5385 18.732 98.0345 20.328 97.6025 22.368H96.7745C96.8225 22.032 96.8465 21.624 96.8465 21.144C96.8705 20.664 96.8825 20.16 96.8825 19.632C96.8825 19.032 96.8585 18.168 96.8105 17.04C96.7865 15.912 96.7265 14.736 96.6305 13.512C97.7345 13.536 98.9345 13.56 100.23 13.584C101.55 13.608 102.87 13.62 104.19 13.62C105.51 13.62 106.698 13.62 107.754 13.62C108.834 13.62 110.022 13.62 111.318 13.62C112.638 13.62 113.958 13.608 115.278 13.584C116.598 13.56 117.786 13.536 118.842 13.512ZM140.261 13.512C140.165 14.568 140.093 15.588 140.045 16.572C140.021 17.556 140.009 18.312 140.009 18.84C140.009 19.32 140.021 19.776 140.045 20.208C140.069 20.64 140.093 21 140.117 21.288H139.289C139.049 19.536 138.677 18.156 138.173 17.148C137.669 16.116 137.009 15.396 136.193 14.988C135.401 14.556 134.465 14.34 133.385 14.34H131.909C131.213 14.34 130.685 14.4 130.325 14.52C129.965 14.64 129.725 14.88 129.605 15.24C129.485 15.6 129.425 16.152 129.425 16.896V35.616C129.425 36.36 129.485 36.912 129.605 37.272C129.725 37.632 129.965 37.872 130.325 37.992C130.685 38.112 131.213 38.172 131.909 38.172H133.673C134.753 38.172 135.701 37.944 136.517 37.488C137.357 37.008 138.065 36.204 138.641 35.076C139.241 33.948 139.697 32.424 140.009 30.504H140.837C140.765 31.272 140.729 32.28 140.729 33.528C140.729 34.08 140.741 34.86 140.765 35.868C140.789 36.876 140.861 37.92 140.981 39C139.757 38.952 138.377 38.928 136.841 38.928C135.305 38.904 133.937 38.892 132.737 38.892C132.137 38.892 131.369 38.892 130.433 38.892C129.497 38.892 128.489 38.904 127.409 38.928C126.329 38.928 125.237 38.94 124.133 38.964C123.029 38.964 121.985 38.976 121.001 39V38.28C121.769 38.232 122.345 38.136 122.729 37.992C123.113 37.848 123.365 37.56 123.485 37.128C123.629 36.696 123.701 36.048 123.701 35.184V17.328C123.701 16.44 123.629 15.792 123.485 15.384C123.365 14.952 123.101 14.664 122.693 14.52C122.309 14.352 121.745 14.256 121.001 14.232V13.512C121.985 13.536 123.029 13.56 124.133 13.584C125.237 13.584 126.329 13.596 127.409 13.62C128.489 13.62 129.497 13.62 130.433 13.62C131.369 13.62 132.137 13.62 132.737 13.62C133.841 13.62 135.089 13.62 136.481 13.62C137.897 13.596 139.157 13.56 140.261 13.512ZM134.645 25.824C134.645 25.824 134.645 25.944 134.645 26.184C134.645 26.424 134.645 26.544 134.645 26.544H128.345C128.345 26.544 128.345 26.424 128.345 26.184C128.345 25.944 128.345 25.824 128.345 25.824H134.645ZM135.689 21.072C135.593 22.44 135.545 23.484 135.545 24.204C135.569 24.924 135.581 25.584 135.581 26.184C135.581 26.784 135.593 27.444 135.617 28.164C135.641 28.884 135.701 29.928 135.797 31.296H134.969C134.849 30.456 134.621 29.676 134.285 28.956C133.973 28.236 133.517 27.66 132.917 27.228C132.317 26.772 131.537 26.544 130.577 26.544V25.824C131.297 25.824 131.909 25.68 132.413 25.392C132.917 25.08 133.325 24.684 133.637 24.204C133.973 23.7 134.237 23.172 134.429 22.62C134.621 22.068 134.765 21.552 134.861 21.072H135.689ZM134.285 5.376C134.789 5.088 135.329 5.016 135.905 5.16C136.505 5.28 136.937 5.616 137.201 6.168C137.441 6.624 137.465 7.104 137.273 7.608C137.105 8.112 136.745 8.52 136.193 8.832C135.665 9.12 135.077 9.348 134.429 9.516C133.781 9.66 133.001 9.852 132.089 10.092C131.177 10.332 130.049 10.704 128.705 11.208L128.453 10.776C129.605 9.84 130.493 9.024 131.117 8.328C131.765 7.632 132.317 7.044 132.773 6.564C133.229 6.06 133.733 5.664 134.285 5.376Z" fill="black" fill-opacity="0.2"/>
</svg>
